<svg xmlns="http://www.w3.org/2000/svg">
    <defs>
        <symbol viewBox="0 0 24 24" id="email">
            <path
            d="M.501 4.46c3.294 2.79 9.074 7.698 10.773 9.228.228.207.472.311.726.311.253 0 .498-.104.725-.31 1.7-1.53 7.48-6.439 10.774-9.229a.5.5 0 0 0 .07-.69A1.986 1.986 0 0 0 22 3H2c-.613 0-1.186.28-1.57.77a.5.5 0 0 0 .071.69z"
            />
            <path
            d="M23.71 5.972a.498.498 0 0 0-.533.072c-3.653 3.097-8.315 7.066-9.782 8.388-.823.743-1.966.743-2.791 0-1.563-1.41-6.799-5.86-9.78-8.388A.5.5 0 0 0 0 6.426V19c0 1.103.897 2 2 2h20c1.103 0 2-.897 2-2V6.426a.5.5 0 0 0-.29-.454z"
            />
        </symbol>
        <symbol viewBox="0 0 24 24" id="telephone">
            <path
            d="M22.667 16.667c-1.66 0-3.267-.267-4.76-.76a1.337 1.337 0 0 0-1.354.326l-2.933 2.94a20.08 20.08 0 0 1-8.787-8.78l2.934-2.946c.366-.367.473-.894.326-1.354-.493-1.493-.76-3.1-.76-4.76C7.333.593 6.74 0 6 0H1.333C.6 0 0 .593 0 1.333 0 13.853 10.147 24 22.667 24c.74 0 1.333-.593 1.333-1.333V18c0-.74-.593-1.333-1.333-1.333z"
            />
        </symbol>
        <symbol id="user" viewBox="0 0 24 24">
            <path
            d="M12 0C5.373 0 0 5.373 0 12s5.373 12 12 12 12-5.373 12-12S18.627 0 12 0zm.036 17.661H6.837c0-3.749 3.292-3.748 4.023-4.728l.084-.447c-1.027-.52-1.751-1.774-1.751-3.24 0-1.933 1.257-3.5 2.807-3.5s2.807 1.567 2.807 3.5c0 1.454-.712 2.7-1.725 3.228l.096.508c.801.933 3.984.994 3.984 4.68h-5.126z"
            />
        </symbol>
        <symbol id="address" viewBox="0 0 24 24">
            <path d="M12 0L0 12.706h3.6V24h6v-8.47h4.8V24h6V12.706H24L12 0z" />
        </symbol>
        <symbol id="city" viewBox="0 0 24 24">
              <path fill="#000" d="M13.406 18.281h-2.812V24h2.812v-5.719z" />
              <path
                d="M18.327 24h-3.515v-7.125H9.188V24h-3.53V0h12.67v24zM8.484 2.812H7.078V4.22h1.406V2.812zm0 2.813H7.078v1.406h1.406V5.625zm0 2.813H7.078v1.406h1.406V8.438zm0 2.812H7.078v1.406h1.406V11.25zm0 2.813H7.078v1.406h1.406v-1.406zm2.813-11.25H9.89v1.406h1.406V2.812zm0 2.812H9.89v1.406h1.406V5.625zm0 2.813H9.89v1.406h1.406V8.438zm0 2.812H9.89v1.406h1.406V11.25zm0 2.813H9.89v1.406h1.406v-1.406zm2.812-11.25h-1.406v1.406h1.406V2.812zm0 2.812h-1.406v1.406h1.406V5.625zm0 2.813h-1.406v1.406h1.406V8.438zm0 2.812h-1.406v1.406h1.406V11.25zm0 2.813h-1.406v1.406h1.406v-1.406zm2.813-11.25h-1.406v1.406h1.406V2.812zm0 2.812h-1.406v1.406h1.406V5.625zm0 2.813h-1.406v1.406h1.406V8.438zm0 2.812h-1.406v1.406h1.406V11.25zm0 2.813h-1.406v1.406h1.406v-1.406zM4.283 5.625H0V24h4.283V5.625zM24 5.625h-4.265V24H24V5.625z"
              />
        </symbol>
        <symbol id="flag" viewBox="0 0 24 24">
            <g clip-path="url(#clip0)">
            <path
                d="M15.493 8.308l3.982-4.352a.396.396 0 0 0 .08-.422.422.422 0 0 0-.37-.237H6.395s-.16 0-.16.026v-.475a1.319 1.319 0 0 0 1.108-1.397A1.45 1.45 0 0 0 5.92 0c-.81 0-1.475.641-1.503 1.45a1.556 1.556 0 0 0 1.029 1.398v20.756a.396.396 0 0 0 .79 0V13.32h12.95a.37.37 0 0 0 .37-.238.422.422 0 0 0-.08-.422l-3.982-4.351z"
            />
            </g>
            <defs>
            <clipPath id="clip0">
                <path fill="#fff" d="M0 0h24v24H0z" />
            </clipPath>
            </defs>
        </symbol>
        <symbol id="arrow-down" viewBox="0 0 24 24">
            <g clip-path="url(#clip0)">
            <path
                fill="#000"
                d="M12 18.84c-.43 0-.86-.164-1.188-.492L.493 8.028A1.68 1.68 0 1 1 2.87 5.653L12 14.783l9.131-9.13a1.68 1.68 0 0 1 2.377 2.376l-10.32 10.32a1.676 1.676 0 0 1-1.187.491z"
            />
            </g>
            <defs>
            <clipPath id="clip0">
                <path fill="#fff" d="M0 0h24v24H0z" />
            </clipPath>
            </defs>
        </symbol>
        <symbol id="post-box" viewBox="0 0 24 24" fill="current">
            <path
            d="M11.071 1.406h2.543V0H9.665v3.228h1.406V1.406zM11.071 3.228v4.841h.911v1.406h-3.21V8.07h.893V3.228H4.823V9.28L2.966 3.708l-1.334.445 2.496 7.488c.369-.218.799-.344 1.258-.344a2.478 2.478 0 0 1 2.47 2.317h14.512V3.228H11.071zM10.368 17.358h1.614V24h3.228v-6.642h1.614V15.02h-6.456v2.338zM5.386 12.703a1.07 1.07 0 0 0 0 2.139 1.07 1.07 0 0 0 0-2.139z"
            />
        </symbol>
        <symbol id="tick" viewBox="0 0 1792 1792" fill="current">
                <path d="M1299 813l-422 422q-19 19-45 19t-45-19l-294-294q-19-19-19-45t19-45l102-102q19-19 45-19t45 19l147 147 275-275q19-19 45-19t45 19l102 102q19 19 19 45t-19 45zm141 83q0-148-73-273t-198-198-273-73-273 73-198 198-73 273 73 273 198 198 273 73 273-73 198-198 73-273zm224 0q0 209-103 385.5t-279.5 279.5-385.5 103-385.5-103-279.5-279.5-103-385.5 103-385.5 279.5-279.5 385.5-103 385.5 103 279.5 279.5 103 385.5z"/>
        <symbol/>
    </defs>
</svg>